<svg xmlns="http://www.w3.org/2000/svg" viewBox="0 0 300 300" width="300" height="300">
  <!-- Fond doux -->
  <rect width="300" height="300" rx="12" fill="#e8f0e8"/>

  <!-- Tige centrale -->
  <path d="M150 285 Q148 200 150 80" stroke="#5a8a5a" stroke-width="3" fill="none" stroke-linecap="round"/>

  <!-- Feuilles gauche -->
  <ellipse cx="112" cy="205" rx="38" ry="14" fill="#5a8a5a" opacity="0.7"  transform="rotate(-35 112 205)"/>
  <ellipse cx="108" cy="162" rx="32" ry="12" fill="#4a7a4a" opacity="0.65" transform="rotate(-42 108 162)"/>
  <ellipse cx="112" cy="125" rx="26" ry="10" fill="#5a8a5a" opacity="0.55" transform="rotate(-38 112 125)"/>

  <!-- Nervures feuilles gauche -->
  <line x1="130" y1="198" x2="95"  y2="215" stroke="#3a6a3a" stroke-width="1" opacity="0.4"/>
  <line x1="126" y1="155" x2="92"  y2="170" stroke="#3a6a3a" stroke-width="1" opacity="0.4"/>

  <!-- Feuilles droite -->
  <ellipse cx="188" cy="195" rx="38" ry="14" fill="#5a8a5a" opacity="0.7"  transform="rotate(35 188 195)"/>
  <ellipse cx="192" cy="152" rx="32" ry="12" fill="#4a7a4a" opacity="0.65" transform="rotate(42 192 152)"/>
  <ellipse cx="188" cy="115" rx="26" ry="10" fill="#5a8a5a" opacity="0.55" transform="rotate(38 188 115)"/>

  <!-- Nervures feuilles droite -->
  <line x1="170" y1="190" x2="205" y2="202" stroke="#3a6a3a" stroke-width="1" opacity="0.4"/>
  <line x1="174" y1="145" x2="208" y2="160" stroke="#3a6a3a" stroke-width="1" opacity="0.4"/>

  <!-- Fleur au sommet -->
  <!-- Pétales -->
  <ellipse cx="150" cy="60"  rx="9" ry="17" fill="#c0a882" opacity="0.65"/>
  <ellipse cx="150" cy="100" rx="9" ry="17" fill="#c0a882" opacity="0.65"/>
  <ellipse cx="127" cy="80"  rx="17" ry="9" fill="#c0a882" opacity="0.65"/>
  <ellipse cx="173" cy="80"  rx="17" ry="9" fill="#c0a882" opacity="0.65"/>
  <ellipse cx="134" cy="63"  rx="9" ry="17" fill="#c0a882" opacity="0.55" transform="rotate(45  134 63)"/>
  <ellipse cx="166" cy="63"  rx="9" ry="17" fill="#c0a882" opacity="0.55" transform="rotate(-45 166 63)"/>
  <ellipse cx="134" cy="97"  rx="9" ry="17" fill="#c0a882" opacity="0.55" transform="rotate(-45 134 97)"/>
  <ellipse cx="166" cy="97"  rx="9" ry="17" fill="#c0a882" opacity="0.55" transform="rotate(45  166 97)"/>
  <!-- Centre fleur -->
  <circle cx="150" cy="80" r="18" fill="#d4b896"/>
  <circle cx="150" cy="80" r="10" fill="#c0a882"/>
  <circle cx="145" cy="76" r="4"  fill="white" opacity="0.25"/>

  <!-- Petites bulles décoratives -->
  <circle cx="48"  cy="50"  r="14" fill="none" stroke="#7c5cbf" stroke-width="1.5" opacity="0.4"/>
  <circle cx="52"  cy="44"  r="2.5" fill="white" opacity="0.3"/>
  <circle cx="252" cy="58"  r="10" fill="none" stroke="#7c5cbf" stroke-width="1.5" opacity="0.4"/>
  <circle cx="255" cy="53"  r="2"  fill="white" opacity="0.3"/>
  <circle cx="40"  cy="245" r="9"  fill="none" stroke="#5a8a5a" stroke-width="1.5" opacity="0.35"/>
  <circle cx="260" cy="235" r="13" fill="none" stroke="#5a8a5a" stroke-width="1.5" opacity="0.35"/>
  <circle cx="263" cy="228" r="2.5" fill="white" opacity="0.25"/>
</svg>
